<svg width="64" height="64" viewBox="0 0 64 64" fill="none" xmlns="http://www.w3.org/2000/svg">
  <defs>
    <linearGradient id="brainGradient64" x1="0%" y1="0%" x2="100%" y2="100%">
      <stop offset="0%" style="stop-color:#3B82F6;stop-opacity:1" />
      <stop offset="100%" style="stop-color:#8B5CF6;stop-opacity:1" />
    </linearGradient>
    <linearGradient id="neuralGradient64" x1="0%" y1="0%" x2="100%" y2="100%">
      <stop offset="0%" style="stop-color:#60A5FA;stop-opacity:1" />
      <stop offset="100%" style="stop-color:#A855F7;stop-opacity:1" />
    </linearGradient>
  </defs>
  
  <!-- Background circle -->
  <circle cx="32" cy="32" r="30" fill="#1F2937" stroke="url(#brainGradient64)" stroke-width="2"/>
  
  <!-- Brain outline -->
  <path d="M16 24C16 16, 20 12, 28 12C32 12, 36 14, 40 16C44 18, 48 22, 48 28C48 32, 46 36, 42 38C44 40, 46 44, 46 48C46 52, 42 56, 38 56C34 56, 30 52, 28 48C26 50, 22 52, 18 52C14 52, 12 48, 12 44C12 40, 14 36, 16 32C16 30, 16 26, 16 24Z" 
        fill="url(#brainGradient64)" opacity="0.9"/>
  
  <!-- Neural network nodes -->
  <circle cx="24" cy="20" r="3" fill="url(#neuralGradient64)"/>
  <circle cx="40" cy="20" r="3" fill="url(#neuralGradient64)"/>
  <circle cx="32" cy="28" r="3" fill="url(#neuralGradient64)"/>
  <circle cx="20" cy="36" r="3" fill="url(#neuralGradient64)"/>
  <circle cx="44" cy="36" r="3" fill="url(#neuralGradient64)"/>
  <circle cx="32" cy="44" r="3" fill="url(#neuralGradient64)"/>
  
  <!-- Neural network connections -->
  <line x1="24" y1="20" x2="32" y2="28" stroke="url(#neuralGradient64)" stroke-width="1.5" opacity="0.7"/>
  <line x1="40" y1="20" x2="32" y2="28" stroke="url(#neuralGradient64)" stroke-width="1.5" opacity="0.7"/>
  <line x1="32" y1="28" x2="20" y2="36" stroke="url(#neuralGradient64)" stroke-width="1.5" opacity="0.7"/>
  <line x1="32" y1="28" x2="44" y2="36" stroke="url(#neuralGradient64)" stroke-width="1.5" opacity="0.7"/>
  <line x1="20" y1="36" x2="32" y2="44" stroke="url(#neuralGradient64)" stroke-width="1.5" opacity="0.7"/>
  <line x1="44" y1="36" x2="32" y2="44" stroke="url(#neuralGradient64)" stroke-width="1.5" opacity="0.7"/>
  
  <!-- Central processing node -->
  <circle cx="32" cy="32" r="4" fill="#F8FAFC" opacity="0.9"/>
  <circle cx="32" cy="32" r="2" fill="url(#brainGradient64)"/>
  
  <!-- Additional neural connections for complexity -->
  <line x1="24" y1="20" x2="20" y2="36" stroke="url(#neuralGradient64)" stroke-width="1" opacity="0.5"/>
  <line x1="40" y1="20" x2="44" y2="36" stroke="url(#neuralGradient64)" stroke-width="1" opacity="0.5"/>
  <line x1="20" y1="36" x2="44" y2="36" stroke="url(#neuralGradient64)" stroke-width="1" opacity="0.5"/>
</svg>
